<svg xmlns="http://www.w3.org/2000/svg" width="50" height="50"><path fill="#FFC73B" d="M38.95 7.94c.304-2.35.467-3.745.467-3.745H9.67s.157 1.396.464 3.746c-5.284-1.376-11.896 6.243 3.97 16.062 1.733 2.833 4.162 4.99 6.81 6.082.022.02.006.02.047.04 1.417.708 1.374 2.105 1.374 2.105v3.54c0 5.666-5.58 7.538-5.58 7.538h-.938v3.26h16.297v-3.26h.224s-6.742-1.872-6.742-7.538v-3.542s.537-1.416 1.954-2.124c.04-.02.337-.04.358-.058 2.648-1.092 5.21-3.174 6.943-6.007 15.867-9.82 9.383-17.476 4.1-16.1m-28.496 2.185c.34 2.372.788 5.17 1.342 7.94.22 1.096.55 2.15.957 3.164-9.607-7.884-6.83-11.98-2.3-11.105M36.336 21.23c.407-1.013.74-2.07.958-3.165.553-2.77 1-5.567 1.342-7.94 4.53-.875 7.306 3.22-2.3 11.104"/><path fill="#FFF" d="M28.938 21.23h-2.45v-5.005h-4.593v5.004h-2.46V9.632h2.46v4.544h4.592V9.633h2.45V21.23z"/></svg>